<!--?xml version="1.0" encoding="us-ascii" standalone="no"?--><svg xmlns="http://www.w3.org/2000/svg" xmlns:xlink="http://www.w3.org/1999/xlink" contentstyletype="text/css" height="452px" preserveAspectRatio="none" style="width:285px;height:452px;background:#FFFFFF;" version="1.1" viewBox="0 0 285 452" width="285px" zoomAndPan="magnify"><defs></defs><g><text fill="#000000" font-family="sans-serif" font-size="14" font-weight="bold" lengthAdjust="spacing" textLength="67" x="108" y="27.9951">User API</text><line style="stroke:#181818;stroke-width:0.5;stroke-dasharray:5.0,5.0;" x1="24" x2="24" y1="118.5938" y2="371.6563"></line><line style="stroke:#181818;stroke-width:0.5;stroke-dasharray:5.0,5.0;" x1="134" x2="134" y1="118.5938" y2="371.6563"></line><line style="stroke:#181818;stroke-width:0.5;stroke-dasharray:5.0,5.0;" x1="239" x2="239" y1="118.5938" y2="371.6563"></line><text fill="#000000" font-family="sans-serif" font-size="14" lengthAdjust="spacing" textLength="32" x="5" y="115.292">User</text><ellipse cx="24" cy="50.7969" fill="#E2E2F0" rx="8" ry="8" style="stroke:#181818;stroke-width:0.5;"></ellipse><path d="M24,58.7969 L24,85.7969 M11,66.7969 L37,66.7969 M24,85.7969 L11,100.7969 M24,85.7969 L37,100.7969 " fill="none" style="stroke:#181818;stroke-width:0.5;"></path><text fill="#000000" font-family="sans-serif" font-size="14" lengthAdjust="spacing" textLength="32" x="5" y="383.6514">User</text><ellipse cx="24" cy="395.4531" fill="#E2E2F0" rx="8" ry="8" style="stroke:#181818;stroke-width:0.5;"></ellipse><path d="M24,403.4531 L24,430.4531 M11,411.4531 L37,411.4531 M24,430.4531 L11,445.4531 M24,430.4531 L37,445.4531 " fill="none" style="stroke:#181818;stroke-width:0.5;"></path><rect fill="#E2E2F0" height="30.2969" rx="2.5" ry="2.5" style="stroke:#181818;stroke-width:0.5;" width="76" x="96" y="87.2969"></rect><text fill="#000000" font-family="sans-serif" font-size="14" lengthAdjust="spacing" textLength="62" x="103" y="107.292">FlaskApp</text><rect fill="#E2E2F0" height="30.2969" rx="2.5" ry="2.5" style="stroke:#181818;stroke-width:0.5;" width="76" x="96" y="370.6563"></rect><text fill="#000000" font-family="sans-serif" font-size="14" lengthAdjust="spacing" textLength="62" x="103" y="390.6514">FlaskApp</text><rect fill="#E2E2F0" height="30.2969" rx="2.5" ry="2.5" style="stroke:#181818;stroke-width:0.5;" width="80" x="199" y="87.2969"></rect><text fill="#000000" font-family="sans-serif" font-size="14" lengthAdjust="spacing" textLength="66" x="206" y="107.292">Database</text><rect fill="#E2E2F0" height="30.2969" rx="2.5" ry="2.5" style="stroke:#181818;stroke-width:0.5;" width="80" x="199" y="370.6563"></rect><text fill="#000000" font-family="sans-serif" font-size="14" lengthAdjust="spacing" textLength="66" x="206" y="390.6514">Database</text><polygon fill="#181818" points="122,145.7266,132,149.7266,122,153.7266,126,149.7266" style="stroke:#181818;stroke-width:1.0;"></polygon><line style="stroke:#181818;stroke-width:1.0;" x1="24" x2="128" y1="149.7266" y2="149.7266"></line><text fill="#000000" font-family="sans-serif" font-size="13" lengthAdjust="spacing" textLength="77" x="31" y="144.6606">Create User</text><polygon fill="#181818" points="227,174.8594,237,178.8594,227,182.8594,231,178.8594" style="stroke:#181818;stroke-width:1.0;"></polygon><line style="stroke:#181818;stroke-width:1.0;" x1="134" x2="233" y1="178.8594" y2="178.8594"></line><text fill="#000000" font-family="sans-serif" font-size="13" lengthAdjust="spacing" textLength="66" x="141" y="173.7935">Save User</text><polygon fill="#181818" points="122,203.9922,132,207.9922,122,211.9922,126,207.9922" style="stroke:#181818;stroke-width:1.0;"></polygon><line style="stroke:#181818;stroke-width:1.0;" x1="24" x2="128" y1="207.9922" y2="207.9922"></line><text fill="#000000" font-family="sans-serif" font-size="13" lengthAdjust="spacing" textLength="86" x="31" y="202.9263">Retrieve User</text><polygon fill="#181818" points="227,233.125,237,237.125,227,241.125,231,237.125" style="stroke:#181818;stroke-width:1.0;"></polygon><line style="stroke:#181818;stroke-width:1.0;" x1="134" x2="233" y1="237.125" y2="237.125"></line><text fill="#000000" font-family="sans-serif" font-size="13" lengthAdjust="spacing" textLength="57" x="141" y="232.0591">Get User</text><polygon fill="#181818" points="122,262.2578,132,266.2578,122,270.2578,126,266.2578" style="stroke:#181818;stroke-width:1.0;"></polygon><line style="stroke:#181818;stroke-width:1.0;" x1="24" x2="128" y1="266.2578" y2="266.2578"></line><text fill="#000000" font-family="sans-serif" font-size="13" lengthAdjust="spacing" textLength="81" x="31" y="261.1919">Update User</text><polygon fill="#181818" points="227,291.3906,237,295.3906,227,299.3906,231,295.3906" style="stroke:#181818;stroke-width:1.0;"></polygon><line style="stroke:#181818;stroke-width:1.0;" x1="134" x2="233" y1="295.3906" y2="295.3906"></line><text fill="#000000" font-family="sans-serif" font-size="13" lengthAdjust="spacing" textLength="81" x="141" y="290.3247">Update User</text><polygon fill="#181818" points="122,320.5234,132,324.5234,122,328.5234,126,324.5234" style="stroke:#181818;stroke-width:1.0;"></polygon><line style="stroke:#181818;stroke-width:1.0;" x1="24" x2="128" y1="324.5234" y2="324.5234"></line><text fill="#000000" font-family="sans-serif" font-size="13" lengthAdjust="spacing" textLength="76" x="31" y="319.4575">Delete User</text><polygon fill="#181818" points="227,349.6563,237,353.6563,227,357.6563,231,353.6563" style="stroke:#181818;stroke-width:1.0;"></polygon><line style="stroke:#181818;stroke-width:1.0;" x1="134" x2="233" y1="353.6563" y2="353.6563"></line><text fill="#000000" font-family="sans-serif" font-size="13" lengthAdjust="spacing" textLength="76" x="141" y="348.5903">Delete User</text><!--SRC=[XOv12i9G44FtSugvW1Tm8HIBuawK7Y3MMNpyw30_zFoMggL2jSk4bqUOc4sROg7LyI22beyOiZY2gKsEEtMNKMwL-rTPWxYWcCYmNsr6JDUw3GDVPXdh7lcCUkICxWtC2Kx6IDRzL-oDlmsDNvSkJ94vHMtP5XGJv0a0]--></g></svg>